# Blender v3.6.4 OBJ File: 'Cocina.blend'
# www.blender.org
mtllib Cocina_PuertasIZQ_01.mtl
o Cocina_PuertasIZQ_01_Cube.006
v -3.562500 4.112500 -3.012500
v -3.612500 4.062500 -3.012500
v -3.612500 4.112500 -3.062500
v -3.577145 4.077145 -3.012500
v -3.583632 4.083632 -3.041368
v -3.612500 4.077145 -3.047855
v -3.577145 4.112500 -3.047855
v -3.612500 4.887500 -3.062500
v -3.612500 4.937500 -3.012500
v -3.562500 4.887500 -3.012500
v -3.612500 4.922855 -3.047855
v -3.583632 4.916368 -3.041368
v -3.577145 4.922855 -3.012500
v -3.577145 4.887500 -3.047855
v -4.887500 4.937500 -3.012500
v -4.887500 4.887500 -3.062500
v -4.937500 4.887500 -3.012500
v -4.887500 4.922855 -3.047855
v -4.916368 4.916368 -3.041368
v -4.922855 4.887500 -3.047855
v -4.922855 4.922855 -3.012500
v -4.887500 4.112500 -3.062500
v -4.887500 4.062500 -3.012500
v -4.937500 4.112500 -3.012500
v -4.887500 4.077145 -3.047855
v -4.916368 4.083632 -3.041368
v -4.922855 4.077145 -3.012500
v -4.922855 4.112500 -3.047855
v -3.612500 4.887500 -2.937500
v -3.562500 4.887500 -2.987500
v -3.612500 4.937500 -2.987500
v -3.577145 4.887500 -2.952145
v -3.583632 4.916368 -2.958632
v -3.577145 4.922855 -2.987500
v -3.612500 4.922855 -2.952145
v -3.562500 4.112500 -2.987500
v -3.612500 4.112500 -2.937500
v -3.612500 4.062500 -2.987500
v -3.577145 4.112500 -2.952145
v -3.583632 4.083632 -2.958632
v -3.612500 4.077145 -2.952145
v -3.577145 4.077145 -2.987500
v -4.887500 4.112500 -2.937500
v -4.937500 4.112500 -2.987500
v -4.887500 4.062500 -2.987500
v -4.922855 4.112500 -2.952145
v -4.916368 4.083632 -2.958632
v -4.922855 4.077145 -2.987500
v -4.887500 4.077145 -2.952145
v -4.887500 4.937500 -2.987500
v -4.937500 4.887500 -2.987500
v -4.887500 4.887500 -2.937500
v -4.922855 4.922855 -2.987500
v -4.916368 4.916368 -2.958632
v -4.922855 4.887500 -2.952145
v -4.887500 4.922855 -2.952145
v -3.612500 4.500000 -3.062500
v -3.562500 4.500000 -3.012500
v -3.577145 4.500000 -3.047855
v -4.887500 4.500000 -3.062500
v -4.937500 4.500000 -3.012500
v -4.922855 4.500000 -3.047855
v -3.562500 4.500000 -2.987500
v -3.612500 4.500000 -2.937500
v -3.577145 4.500000 -2.952145
v -4.937500 4.500000 -2.987500
v -4.887500 4.500000 -2.937500
v -4.922855 4.500000 -2.952145
vt 0.596875 0.884375
vt 0.500000 0.884375
vt 0.500000 0.990625
vt 0.596875 0.990625
vt 0.500000 0.884375
vt 0.596875 0.884375
vt 0.596875 0.990625
vt 0.500000 0.990625
vt 0.403125 0.884375
vt 0.403125 0.990625
vt 0.500000 0.880208
vt 0.596875 0.880208
vt 0.596875 0.880208
vt 0.500000 0.880208
vt 0.596875 0.994792
vt 0.500000 0.994792
vt 0.500000 0.994792
vt 0.596875 0.994792
vt 0.390625 0.990625
vt 0.390625 0.884375
vt 0.390625 0.884375
vt 0.390625 0.990625
vt 0.609375 0.884375
vt 0.609375 0.990625
vt 0.609375 0.990625
vt 0.609375 0.884375
vt 0.403125 0.884375
vt 0.403125 0.990625
vt 0.403125 0.994792
vt 0.403125 0.994792
vt 0.403125 0.880208
vt 0.390625 0.880208
vt 0.392386 0.880795
vt 0.403125 0.880208
vt 0.390625 0.884375
vt 0.609375 0.884375
vt 0.607614 0.880795
vt 0.596875 0.880208
vt 0.609375 0.880208
vt 0.609375 0.990625
vt 0.607614 0.994205
vt 0.609375 0.994792
vt 0.596875 0.994792
vt 0.390625 0.990625
vt 0.392386 0.994205
vt 0.403125 0.994792
vt 0.390625 0.994792
vt 0.596875 0.880208
vt 0.607614 0.880795
vt 0.609375 0.884375
vt 0.609375 0.880208
vt 0.403125 0.880208
vt 0.403125 0.880208
vt 0.392386 0.880795
vt 0.390625 0.880208
vt 0.390625 0.884375
vt 0.403125 0.994792
vt 0.392386 0.994205
vt 0.390625 0.990625
vt 0.390625 0.994792
vt 0.609375 0.994792
vt 0.607614 0.994205
vt 0.609375 0.990625
vt 0.596875 0.994792
vt 0.500000 0.880208
vt 0.500000 0.994792
vt 0.500000 0.880208
vt 0.500000 0.994792
vn 0.1794 0.1794 -0.9673
vn 0.1951 0.0000 -0.9808
vn -0.1951 0.0000 -0.9808
vn -0.1794 0.1794 -0.9673
vn 0.1951 0.0000 0.9808
vn 0.1794 0.1794 0.9673
vn -0.1794 0.1794 0.9673
vn -0.1951 0.0000 0.9808
vn 0.1794 -0.1794 0.9673
vn -0.1794 -0.1794 0.9673
vn 0.9808 0.0000 -0.1951
vn 0.9673 0.1794 -0.1794
vn 0.9673 0.1794 0.1794
vn 0.9808 0.0000 0.1951
vn -0.9673 0.1794 -0.1794
vn -0.9808 0.0000 -0.1951
vn -0.9808 0.0000 0.1951
vn -0.9673 0.1794 0.1794
vn -0.1794 -0.9673 -0.1794
vn 0.1794 -0.9673 -0.1794
vn 0.1794 -0.9673 0.1794
vn -0.1794 -0.9673 0.1794
vn 0.1794 0.9673 -0.1794
vn -0.1794 0.9673 -0.1794
vn -0.1794 0.9673 0.1794
vn 0.1794 0.9673 0.1794
vn 0.1794 -0.1794 -0.9673
vn -0.1794 -0.1794 -0.9673
vn -0.9673 -0.1794 -0.1794
vn -0.9673 -0.1794 0.1794
vn 0.9673 -0.1794 -0.1794
vn 0.9194 -0.3600 -0.1585
vn 0.8881 -0.3251 -0.3251
vn 0.9194 -0.1585 -0.3600
vn 0.1585 -0.9194 -0.3600
vn 0.3251 -0.8881 -0.3251
vn 0.3600 -0.9194 -0.1585
vn 0.3600 -0.1585 -0.9194
vn 0.3251 -0.3251 -0.8881
vn 0.1585 -0.3600 -0.9194
vn 0.1585 0.3600 -0.9194
vn 0.3251 0.3251 -0.8881
vn 0.3600 0.1585 -0.9194
vn 0.3600 0.9194 -0.1585
vn 0.3251 0.8881 -0.3251
vn 0.1585 0.9194 -0.3600
vn 0.9194 0.1585 -0.3600
vn 0.8881 0.3251 -0.3251
vn 0.9194 0.3600 -0.1585
vn -0.1585 0.9194 -0.3600
vn -0.3251 0.8881 -0.3251
vn -0.3600 0.9194 -0.1585
vn -0.3600 0.1585 -0.9194
vn -0.3251 0.3251 -0.8881
vn -0.1585 0.3600 -0.9194
vn -0.9194 0.3600 -0.1585
vn -0.8881 0.3251 -0.3251
vn -0.9194 0.1585 -0.3600
vn -0.1585 -0.3600 -0.9194
vn -0.3251 -0.3251 -0.8881
vn -0.3600 -0.1585 -0.9194
vn -0.3600 -0.9194 -0.1585
vn -0.3251 -0.8881 -0.3251
vn -0.1585 -0.9194 -0.3600
vn -0.9194 -0.1585 -0.3600
vn -0.8881 -0.3251 -0.3251
vn -0.9194 -0.3600 -0.1585
vn 0.3600 0.1585 0.9194
vn 0.3251 0.3251 0.8881
vn 0.1585 0.3600 0.9194
vn 0.9194 0.3600 0.1585
vn 0.8881 0.3251 0.3251
vn 0.9194 0.1585 0.3600
vn 0.1585 0.9194 0.3600
vn 0.3251 0.8881 0.3251
vn 0.3600 0.9194 0.1585
vn 0.9673 -0.1794 0.1794
vn 0.9194 -0.1585 0.3600
vn 0.8881 -0.3251 0.3251
vn 0.9194 -0.3600 0.1585
vn 0.1585 -0.3600 0.9194
vn 0.3251 -0.3251 0.8881
vn 0.3600 -0.1585 0.9194
vn 0.3600 -0.9194 0.1585
vn 0.3251 -0.8881 0.3251
vn 0.1585 -0.9194 0.3600
vn -0.3600 -0.1585 0.9194
vn -0.3251 -0.3251 0.8881
vn -0.1585 -0.3600 0.9194
vn -0.9194 -0.3600 0.1585
vn -0.8881 -0.3251 0.3251
vn -0.9194 -0.1585 0.3600
vn -0.1585 -0.9194 0.3600
vn -0.3251 -0.8881 0.3251
vn -0.3600 -0.9194 0.1585
vn -0.3600 0.9194 0.1585
vn -0.3251 0.8881 0.3251
vn -0.1585 0.9194 0.3600
vn -0.9194 0.1585 0.3600
vn -0.8881 0.3251 0.3251
vn -0.9194 0.3600 0.1585
vn -0.1585 0.3600 0.9194
vn -0.3251 0.3251 0.8881
vn -0.3600 0.1585 0.9194
vn 0.9239 0.0000 -0.3827
vn 0.3827 0.0000 -0.9239
vn -0.9239 0.0000 -0.3827
vn -0.3827 0.0000 -0.9239
vn 0.3827 0.0000 0.9239
vn 0.9239 0.0000 0.3827
vn -0.3827 0.0000 0.9239
vn -0.9239 0.0000 0.3827
usemtl None
s 1
f 8/1/1 57/2/2 60/3/3 16/4/4
f 64/5/5 29/6/6 52/7/7 67/8/8
f 37/9/9 64/5/5 67/8/8 43/10/10
f 58/11/11 10/12/12 30/13/13 63/14/14
f 17/15/15 61/16/16 66/17/17 51/18/18
f 23/19/19 2/20/20 38/21/21 45/22/22
f 9/23/23 15/24/24 50/25/25 31/26/26
f 57/2/2 3/27/27 22/28/28 60/3/3
f 61/16/16 24/29/29 44/30/30 66/17/17
f 1/31/31 4/32/32 5/33/33 7/34/34
f 2/20/20 6/35/35 5/33/36 4/32/37
f 3/27/27 7/34/38 5/33/39 6/35/40
f 8/1/1 11/36/41 12/37/42 14/38/43
f 9/23/23 13/39/44 12/37/45 11/36/46
f 10/12/12 14/38/47 12/37/48 13/39/49
f 15/24/24 18/40/50 19/41/51 21/42/52
f 16/4/4 20/43/53 19/41/54 18/40/55
f 17/15/15 21/42/56 19/41/57 20/43/58
f 22/28/28 25/44/59 26/45/60 28/46/61
f 23/19/19 27/47/62 26/45/63 25/44/64
f 24/29/29 28/46/65 26/45/66 27/47/67
f 29/6/6 32/48/68 33/49/69 35/50/70
f 30/13/13 34/51/71 33/49/72 32/48/73
f 31/26/26 35/50/74 33/49/75 34/51/76
f 36/52/77 39/53/78 40/54/79 42/55/80
f 37/9/9 41/56/81 40/54/82 39/53/83
f 38/21/21 42/55/84 40/54/85 41/56/86
f 43/10/10 46/57/87 47/58/88 49/59/89
f 44/30/30 48/60/90 47/58/91 46/57/92
f 45/22/22 49/59/93 47/58/94 48/60/95
f 50/25/25 53/61/96 54/62/97 56/63/98
f 51/18/18 55/64/99 54/62/100 53/61/101
f 52/7/7 56/63/102 54/62/103 55/64/104
f 58/11/11 1/31/31 7/34/34 59/65/105
f 59/65/106 7/34/38 3/27/27 57/2/2
f 22/28/28 3/27/27 6/35/40 25/44/59
f 25/44/64 6/35/35 2/20/20 23/19/19
f 8/1/1 16/4/4 18/40/55 11/36/41
f 11/36/46 18/40/50 15/24/24 9/23/23
f 61/16/16 17/15/15 20/43/58 62/66/107
f 62/66/108 20/43/53 16/4/4 60/3/3
f 64/5/5 37/9/9 39/53/83 65/67/109
f 65/67/110 39/53/78 36/52/77 63/14/14
f 45/22/22 38/21/21 41/56/86 49/59/93
f 49/59/89 41/56/81 37/9/9 43/10/10
f 31/26/26 50/25/25 56/63/98 35/50/74
f 35/50/70 56/63/102 52/7/7 29/6/6
f 67/8/8 52/7/7 55/64/104 68/68/111
f 68/68/112 55/64/99 51/18/18 66/17/17
f 23/19/19 45/22/22 48/60/95 27/47/62
f 27/47/67 48/60/90 44/30/30 24/29/29
f 50/25/25 15/24/24 21/42/52 53/61/96
f 53/61/101 21/42/56 17/15/15 51/18/18
f 1/31/31 36/52/77 42/55/80 4/32/32
f 4/32/37 42/55/84 38/21/21 2/20/20
f 30/13/13 10/12/12 13/39/49 34/51/71
f 34/51/76 13/39/44 9/23/23 31/26/26
f 10/12/12 58/11/11 59/65/105 14/38/47
f 14/38/43 59/65/106 57/2/2 8/1/1
f 24/29/29 61/16/16 62/66/107 28/46/65
f 28/46/61 62/66/108 60/3/3 22/28/28
f 29/6/6 64/5/5 65/67/109 32/48/68
f 32/48/73 65/67/110 63/14/14 30/13/13
f 43/10/10 67/8/8 68/68/111 46/57/87
f 46/57/92 68/68/112 66/17/17 44/30/30
f 1/31/31 58/11/11 63/14/14 36/52/77
