# Blender v3.6.4 OBJ File: 'Cocina.blend'
# www.blender.org
mtllib Cocina_PuertasDER.mtl
o Cocina_PuertasDER_Cube.007
v 4.887500 3.112500 -3.062500
v 4.937500 3.112500 -3.012500
v 4.887500 3.062500 -3.012500
v 4.922855 3.112500 -3.047855
v 4.916368 3.083632 -3.041368
v 4.922855 3.077145 -3.012500
v 4.887500 3.077145 -3.047855
v 4.887500 4.887500 -3.062500
v 4.887500 4.937500 -3.012500
v 4.937500 4.887500 -3.012500
v 4.887500 4.922855 -3.047855
v 4.916368 4.916368 -3.041368
v 4.922855 4.922855 -3.012500
v 4.922855 4.887500 -3.047855
v 3.112500 4.887500 -3.062500
v 3.062500 4.887500 -3.012500
v 3.112500 4.937500 -3.012500
v 3.077145 4.887500 -3.047855
v 3.083632 4.916368 -3.041368
v 3.077145 4.922855 -3.012500
v 3.112500 4.922855 -3.047855
v 3.112500 3.112500 -3.062500
v 3.112500 3.062500 -3.012500
v 3.062500 3.112500 -3.012500
v 3.112500 3.077145 -3.047855
v 3.083632 3.083632 -3.041368
v 3.077145 3.077145 -3.012500
v 3.077145 3.112500 -3.047855
v 4.887500 4.887500 -2.937500
v 4.937500 4.887500 -2.987500
v 4.887500 4.937500 -2.987500
v 4.922855 4.887500 -2.952145
v 4.916368 4.916368 -2.958632
v 4.922855 4.922855 -2.987500
v 4.887500 4.922855 -2.952145
v 4.887500 3.112500 -2.937500
v 4.887500 3.062500 -2.987500
v 4.937500 3.112500 -2.987500
v 4.887500 3.077145 -2.952145
v 4.916368 3.083632 -2.958632
v 4.922855 3.077145 -2.987500
v 4.922855 3.112500 -2.952145
v 3.112500 3.112500 -2.937500
v 3.062500 3.112500 -2.987500
v 3.112500 3.062500 -2.987500
v 3.077145 3.112500 -2.952145
v 3.083632 3.083632 -2.958632
v 3.077145 3.077145 -2.987500
v 3.112500 3.077145 -2.952145
v 3.112500 4.887500 -2.937500
v 3.112500 4.937500 -2.987500
v 3.062500 4.887500 -2.987500
v 3.112500 4.922855 -2.952145
v 3.083632 4.916368 -2.958632
v 3.077145 4.922855 -2.987500
v 3.077145 4.887500 -2.952145
vt 0.610937 0.992188
vt 0.389062 0.992188
vt 0.389062 0.992188
vt 0.610937 0.992187
vt 0.617187 0.764062
vt 0.617187 0.985938
vt 0.617188 0.985938
vt 0.617188 0.764062
vt 0.389062 0.757812
vt 0.610937 0.757812
vt 0.610937 0.757812
vt 0.389062 0.757812
vt 0.389063 0.764063
vt 0.610937 0.764063
vt 0.610938 0.985938
vt 0.389063 0.985938
vt 0.382812 0.985937
vt 0.382812 0.764063
vt 0.382813 0.764063
vt 0.382812 0.985938
vt 0.389062 0.764063
vt 0.389063 0.757812
vt 0.383693 0.758693
vt 0.382812 0.764063
vt 0.382812 0.757812
vt 0.610938 0.764063
vt 0.617188 0.764063
vt 0.616307 0.758693
vt 0.610937 0.757812
vt 0.617188 0.757812
vt 0.610938 0.985938
vt 0.610937 0.992188
vt 0.616307 0.991307
vt 0.617188 0.985938
vt 0.617188 0.992188
vt 0.389063 0.985938
vt 0.382812 0.985937
vt 0.383693 0.991307
vt 0.389063 0.992188
vt 0.382812 0.992188
vt 0.610937 0.757812
vt 0.616307 0.758693
vt 0.617188 0.764063
vt 0.617188 0.757812
vt 0.382812 0.764063
vt 0.383693 0.758693
vt 0.389063 0.757812
vt 0.382812 0.757812
vt 0.389063 0.992188
vt 0.383693 0.991307
vt 0.382812 0.985937
vt 0.382812 0.992188
vt 0.617188 0.985938
vt 0.616307 0.991307
vt 0.610937 0.992188
vt 0.617188 0.992188
vn -1.0000 0.0000 0.0000
vn 0.0000 1.0000 0.0000
vn 1.0000 0.0000 0.0000
vn 0.0000 0.0000 1.0000
vn 0.0000 -1.0000 0.0000
vn 0.3251 -0.3251 -0.8881
vn 0.8881 -0.3251 -0.3251
vn 0.3251 -0.8881 -0.3251
vn 0.3251 0.3251 -0.8881
vn 0.3251 0.8881 -0.3251
vn 0.8881 0.3251 -0.3251
vn -0.3251 0.3251 -0.8881
vn -0.8881 0.3251 -0.3251
vn -0.3251 0.8881 -0.3251
vn -0.3251 -0.3251 -0.8881
vn -0.3251 -0.8881 -0.3251
vn -0.8881 -0.3251 -0.3251
vn 0.3251 0.3251 0.8881
vn 0.8881 0.3251 0.3251
vn 0.3251 0.8881 0.3251
vn 0.3251 -0.3251 0.8881
vn 0.3251 -0.8881 0.3251
vn 0.8881 -0.3251 0.3251
vn -0.3251 -0.3251 0.8881
vn -0.8881 -0.3251 0.3251
vn -0.3251 -0.8881 0.3251
vn -0.3251 0.3251 0.8881
vn -0.3251 0.8881 0.3251
vn -0.8881 0.3251 0.3251
vn 0.0000 -0.3827 -0.9239
vn 0.0000 -0.9239 -0.3827
vn 0.0000 0.3827 -0.9239
vn 0.0000 0.9239 -0.3827
vn 0.0000 -0.9239 0.3827
vn 0.0000 -0.3827 0.9239
vn 0.0000 0.9239 0.3827
vn 0.0000 0.3827 0.9239
vn -0.9239 0.3827 0.0000
vn -0.3827 0.9239 0.0000
vn 0.9239 0.3827 0.0000
vn 0.3827 0.9239 0.0000
vn 0.3827 -0.9239 0.0000
vn 0.9239 -0.3827 0.0000
vn -0.3827 -0.9239 0.0000
vn -0.9239 -0.3827 0.0000
vn 0.9239 0.0000 -0.3827
vn 0.3827 0.0000 -0.9239
vn -0.9239 0.0000 -0.3827
vn -0.3827 0.0000 -0.9239
vn 0.3827 0.0000 0.9239
vn 0.9239 0.0000 0.3827
vn -0.3827 0.0000 0.9239
vn -0.9239 0.0000 0.3827
vn 0.0000 0.0000 -1.0000
usemtl None
s off
f 16/1/1 24/2/1 44/3/1 52/4/1
f 9/5/2 17/6/2 51/7/2 31/8/2
f 2/9/3 10/10/3 30/11/3 38/12/3
f 36/13/4 29/14/4 50/15/4 43/16/4
f 23/17/5 3/18/5 37/19/5 45/20/5
f 1/21/6 4/22/6 5/23/6 7/24/6
f 2/9/7 6/25/7 5/23/7 4/22/7
f 3/18/8 7/24/8 5/23/8 6/25/8
f 8/26/9 11/27/9 12/28/9 14/29/9
f 9/5/10 13/30/10 12/28/10 11/27/10
f 10/10/11 14/29/11 12/28/11 13/30/11
f 15/31/12 18/32/12 19/33/12 21/34/12
f 16/1/13 20/35/13 19/33/13 18/32/13
f 17/6/14 21/34/14 19/33/14 20/35/14
f 22/36/15 25/37/15 26/38/15 28/39/15
f 23/17/16 27/40/16 26/38/16 25/37/16
f 24/2/17 28/39/17 26/38/17 27/40/17
f 29/14/18 32/41/18 33/42/18 35/43/18
f 30/11/19 34/44/19 33/42/19 32/41/19
f 31/8/20 35/43/20 33/42/20 34/44/20
f 36/13/21 39/45/21 40/46/21 42/47/21
f 37/19/22 41/48/22 40/46/22 39/45/22
f 38/12/23 42/47/23 40/46/23 41/48/23
f 43/16/24 46/49/24 47/50/24 49/51/24
f 44/3/25 48/52/25 47/50/25 46/49/25
f 45/20/26 49/51/26 47/50/26 48/52/26
f 50/15/27 53/53/27 54/54/27 56/55/27
f 51/7/28 55/56/28 54/54/28 53/53/28
f 52/4/29 56/55/29 54/54/29 55/56/29
f 22/36/30 1/21/30 7/24/30 25/37/30
f 25/37/31 7/24/31 3/18/31 23/17/31
f 8/26/32 15/31/32 21/34/32 11/27/32
f 11/27/33 21/34/33 17/6/33 9/5/33
f 45/20/34 37/19/34 39/45/34 49/51/34
f 49/51/35 39/45/35 36/13/35 43/16/35
f 31/8/36 51/7/36 53/53/36 35/43/36
f 35/43/37 53/53/37 50/15/37 29/14/37
f 16/1/38 52/4/38 55/56/38 20/35/38
f 20/35/39 55/56/39 51/7/39 17/6/39
f 30/11/40 10/10/40 13/30/40 34/44/40
f 34/44/41 13/30/41 9/5/41 31/8/41
f 37/19/42 3/18/42 6/25/42 41/48/42
f 41/48/43 6/25/43 2/9/43 38/12/43
f 23/17/44 45/20/44 48/52/44 27/40/44
f 27/40/45 48/52/45 44/3/45 24/2/45
f 10/10/46 2/9/46 4/22/46 14/29/46
f 14/29/47 4/22/47 1/21/47 8/26/47
f 24/2/48 16/1/48 18/32/48 28/39/48
f 28/39/49 18/32/49 15/31/49 22/36/49
f 29/14/50 36/13/50 42/47/50 32/41/50
f 32/41/51 42/47/51 38/12/51 30/11/51
f 43/16/52 50/15/52 56/55/52 46/49/52
f 46/49/53 56/55/53 52/4/53 44/3/53
f 8/26/54 1/21/54 22/36/54 15/31/54
