# Blender v3.6.4 OBJ File: 'Cocina.blend'
# www.blender.org
mtllib Cocina_Paredes.mtl
o Cocina_Paredes_Plane.001
v -5.000000 5.000000 5.000000
v -4.999999 0.000000 5.000000
v -5.000000 5.000000 -5.000000
v -4.999999 0.000000 -5.000000
v -5.000000 5.000000 1.000000
v -4.999999 0.000000 1.000000
v -5.000000 5.000000 3.000000
v -4.999999 0.000000 3.000000
v -5.000000 4.500000 5.000000
v -5.000000 4.500000 -5.000000
v -4.999999 2.250000 5.000000
v -4.999999 2.250000 -5.000000
v -5.000000 0.000000 5.000000
v 5.000000 0.000000 5.000000
v -5.000000 0.000000 -5.000000
v 5.000000 0.000000 -5.000000
v 4.999996 5.000000 -5.000000
v 4.999998 -0.000000 -5.000000
v 5.000000 5.000000 5.000000
v 5.000000 0.000000 5.000000
v 5.000000 5.000000 5.000000
v -5.000000 5.000003 5.000000
v 5.000000 5.000000 -5.000000
v -5.000000 5.000003 -5.000000
v -5.000000 5.000000 -5.000000
v -5.000000 -0.000000 -5.000000
v 5.000000 5.000000 -5.000004
v 5.000000 0.000000 -5.000005
v -5.050000 4.450000 1.000000
v -5.000000 4.550000 0.950000
v -5.050000 4.500000 1.050000
v -5.014645 4.500000 0.985355
v -5.021132 4.500000 1.000000
v -5.014645 4.514645 1.000000
v -5.050000 4.485355 1.014645
v -5.050000 4.450000 3.000000
v -5.050000 4.500000 2.950000
v -5.000000 4.550000 3.050000
v -5.050000 4.485355 2.985355
v -5.021132 4.500000 3.000000
v -5.014645 4.514645 3.000000
v -5.014645 4.500000 3.014645
v -5.049999 2.300000 1.000000
v -5.049999 2.250000 1.050000
v -4.999999 2.200000 0.950000
v -5.049999 2.264645 1.014645
v -5.021132 2.250000 1.000000
v -5.014644 2.235355 1.000000
v -5.014644 2.250000 0.985355
v -5.049999 2.300000 3.000000
v -4.999999 2.200000 3.050000
v -5.049999 2.250000 2.950000
v -5.014644 2.250000 3.014645
v -5.021132 2.250000 3.000000
v -5.014644 2.235355 3.000000
v -5.049999 2.264645 2.985355
v -5.199999 2.300000 1.000000
v -5.249999 2.300000 1.050000
v -5.199999 2.250000 1.050000
v -5.235354 2.300000 1.014645
v -5.228867 2.271132 1.021132
v -5.235354 2.264645 1.050000
v -5.199999 2.264645 1.014645
v -5.200000 4.450000 1.000000
v -5.200000 4.500000 1.050000
v -5.250000 4.450000 1.050000
v -5.199999 4.485356 1.014645
v -5.228867 4.478868 1.021132
v -5.235355 4.485356 1.050000
v -5.235355 4.450000 1.014645
v -5.199999 2.300000 3.000000
v -5.199999 2.250000 2.950000
v -5.249999 2.300000 2.950000
v -5.199999 2.264645 2.985355
v -5.228867 2.271132 2.978867
v -5.235354 2.264645 2.950000
v -5.235354 2.300000 2.985355
v -5.200000 4.450000 3.000000
v -5.250000 4.450000 2.950000
v -5.200000 4.500000 2.950000
v -5.235355 4.450000 2.985355
v -5.228867 4.478868 2.978867
v -5.235355 4.485356 2.950000
v -5.199999 4.485356 2.985355
vt 0.000000 0.000000
vt 1.000000 0.000000
vt 1.000000 1.000000
vt 0.000000 1.000000
vt 0.000000 0.000000
vt 1.000000 0.000000
vt 1.000000 1.000000
vt 0.000000 1.000000
vt 0.000000 0.000000
vt 1.000000 0.000000
vt 1.000000 1.000000
vt 0.000000 1.000000
vt 0.000000 0.000000
vt 1.000000 0.000000
vt 1.000000 1.000000
vt 0.000000 1.000000
vt 1.000000 0.000000
vt 1.000000 0.000000
vt 1.000000 0.000000
vt 1.000000 0.000000
vt 1.000000 0.000000
vt 1.000000 0.000000
vt 1.000000 0.000000
vt 1.000000 0.000000
vt 0.022222 0.000000
vt 0.977778 0.000000
vt 0.977778 0.000000
vt 0.022222 0.000000
vt 0.022222 0.000000
vt 0.977778 0.000000
vt 0.977778 0.000000
vt 0.022222 0.000000
vt -0.022222 0.008333
vt 1.022222 0.008333
vt 1.000000 1.000000
vt 0.000000 1.000000
vt 0.977778 0.000000
vt 0.022222 0.000000
vt 0.022222 0.000000
vt 0.977778 0.000000
vt 1.000000 0.000000
vt 1.000000 0.000000
vt 0.000000 0.000000
vt 0.000000 0.000000
vt 0.000000 0.000000
vt 0.000000 0.000000
vt 0.000000 0.000000
vt 0.000000 0.000000
vt 0.000000 0.000000
vt 0.000000 0.000000
vt 0.000000 0.000000
vt 0.000000 0.000000
vt 1.022222 0.000000
vt -0.022222 0.000000
vt 1.000000 0.008333
vt 1.000000 1.000000
vt 0.000000 0.000000
vt 0.000000 0.000000
vt 0.000000 0.000000
vt 0.000000 0.000000
vt 0.000000 0.000000
vt 0.000000 0.000000
vt 0.000000 0.000000
vt 0.000000 0.000000
vt 1.000000 0.000000
vt 1.000000 0.000000
vt 1.000000 0.000000
vt 1.000000 0.000000
vt 1.000000 0.000000
vt 1.000000 0.000000
vt 1.000000 0.000000
vt 1.000000 0.000000
vt 0.977778 0.000000
vt 0.996869 0.000000
vt 1.000000 0.000000
vt 1.000000 0.000000
vt 0.000000 0.000000
vt 0.003131 0.000000
vt 0.022222 0.000000
vt 0.000000 0.000000
vt 1.000000 0.000000
vt 0.996869 0.000000
vt 0.977778 0.000000
vt 1.000000 0.000000
vt 0.022222 0.000000
vt 0.003131 0.000000
vt 0.000000 0.000000
vt 0.000000 0.000000
vt 0.000000 0.008333
vt 0.000000 1.000000
vn -0.0000 1.0000 0.0000
vn -1.0000 -0.0000 0.0000
vn -0.0000 -1.0000 0.0000
vn 0.0000 -0.0000 1.0000
vn 1.0000 0.0000 0.0000
vn 0.0000 0.0000 -1.0000
vn 0.3311 -0.2022 0.9217
vn 0.8862 -0.1446 0.4402
vn 0.7686 -0.4524 0.4524
vn 0.4061 -0.6462 0.6462
vn 0.9594 -0.1995 0.1995
vn 0.8862 -0.4402 0.1445
vn 0.3311 -0.9217 0.2022
vn 0.3312 -0.2022 -0.9217
vn 0.4061 -0.6462 -0.6462
vn 0.7686 -0.4524 -0.4524
vn 0.8862 -0.1446 -0.4402
vn 0.3312 -0.9217 -0.2022
vn 0.8862 -0.4402 -0.1445
vn 0.9594 -0.1995 -0.1995
vn 0.3311 0.2022 0.9217
vn 0.4061 0.6462 0.6462
vn 0.7685 0.4524 0.4524
vn 0.8862 0.1446 0.4402
vn 0.3312 0.9217 0.2022
vn 0.8862 0.4402 0.1446
vn 0.9594 0.1995 0.1995
vn 0.3312 0.2022 -0.9217
vn 0.8862 0.1446 -0.4402
vn 0.7685 0.4524 -0.4524
vn 0.4061 0.6462 -0.6462
vn 0.9594 0.1995 -0.1995
vn 0.8862 0.4402 -0.1446
vn 0.3312 0.9217 -0.2022
vn 0.2402 0.2402 0.9406
vn 0.6965 0.1726 0.6965
vn 0.5773 0.5774 0.5773
vn 0.1726 0.6965 0.6965
vn 0.9406 0.2402 0.2402
vn 0.6965 0.6965 0.1726
vn 0.2402 0.9406 0.2402
vn 0.2402 -0.2401 0.9406
vn 0.1726 -0.6965 0.6965
vn 0.5773 -0.5774 0.5774
vn 0.6965 -0.1726 0.6965
vn 0.2402 -0.9406 0.2402
vn 0.6965 -0.6965 0.1726
vn 0.9406 -0.2402 0.2402
vn 0.2402 0.2402 -0.9406
vn 0.1726 0.6965 -0.6965
vn 0.5773 0.5774 -0.5773
vn 0.6965 0.1726 -0.6965
vn 0.2402 0.9406 -0.2402
vn 0.6965 0.6965 -0.1726
vn 0.9406 0.2402 -0.2402
vn 0.2402 -0.2402 -0.9406
vn 0.6965 -0.1726 -0.6965
vn 0.5773 -0.5774 -0.5774
vn 0.1726 -0.6965 -0.6965
vn 0.9406 -0.2402 -0.2402
vn 0.6965 -0.6965 -0.1726
vn 0.2402 -0.9406 -0.2402
usemtl None
s off
f 13/1/1 14/2/1 16/3/1 15/4/1
f 17/5/2 18/6/2 20/7/2 19/8/2
f 21/9/3 22/10/3 24/11/3 23/12/3
f 25/13/4 26/14/4 28/15/4 27/16/4
s 1
f 11/17/5 2/18/5 8/19/5 51/20/5
f 52/21/1 44/22/1 59/23/1 72/24/1
f 79/25/5 73/26/5 58/27/5 66/28/5
f 36/29/6 50/30/6 71/31/6 78/32/6
f 30/33/5 45/34/5 12/35/5 10/36/5
f 43/37/4 29/38/4 64/39/4 57/40/4
f 51/20/5 8/19/5 6/41/5 45/42/5
f 7/43/5 38/44/5 30/45/5 5/46/5
f 31/47/3 37/48/3 80/49/3 65/50/3
f 1/51/5 9/52/5 38/44/5 7/43/5
f 9/52/5 11/17/5 51/53/5 38/54/5
f 45/55/5 6/41/5 4/56/5 12/35/5
f 29/38/7 32/57/8 33/58/9 35/59/10
f 30/45/11 34/60/12 33/58/9 32/57/8
f 31/47/13 35/59/10 33/58/9 34/60/12
f 36/29/14 39/61/15 40/62/16 42/63/17
f 37/48/18 41/64/19 40/62/16 39/61/15
f 38/54/20 42/63/17 40/62/16 41/64/19
f 43/37/21 46/65/22 47/66/23 49/67/24
f 44/22/25 48/68/26 47/66/23 46/65/22
f 45/34/27 49/67/24 47/66/23 48/68/26
f 50/30/28 53/69/29 54/70/30 56/71/31
f 51/20/32 55/72/33 54/70/30 53/69/29
f 52/21/34 56/71/31 54/70/30 55/72/33
f 57/40/35 60/73/36 61/74/37 63/75/38
f 58/27/39 62/76/40 61/74/37 60/73/36
f 59/23/41 63/75/38 61/74/37 62/76/40
f 64/39/42 67/77/43 68/78/44 70/79/45
f 65/50/46 69/80/47 68/78/44 67/77/43
f 66/28/48 70/79/45 68/78/44 69/80/47
f 71/31/49 74/81/50 75/82/51 77/83/52
f 72/24/53 76/84/54 75/82/51 74/81/50
f 73/26/55 77/83/52 75/82/51 76/84/54
f 78/32/56 81/85/57 82/86/58 84/87/59
f 79/25/60 83/88/61 82/86/58 81/85/57
f 80/49/62 84/87/59 82/86/58 83/88/61
f 45/34/27 30/33/11 32/57/8 49/67/24
f 49/67/24 32/57/8 29/38/7 43/37/21
f 50/30/28 36/29/14 42/63/17 53/69/29
f 53/69/29 42/63/17 38/54/20 51/53/32
f 37/48/18 31/47/13 34/60/12 41/64/19
f 41/64/19 34/60/12 30/45/11 38/44/20
f 51/20/32 45/42/27 48/68/26 55/72/33
f 55/72/33 48/68/26 44/22/25 52/21/34
f 57/40/35 64/39/42 70/79/45 60/73/36
f 60/73/36 70/79/45 66/28/48 58/27/39
f 73/26/55 79/25/60 81/85/57 77/83/52
f 77/83/52 81/85/57 78/32/56 71/31/49
f 79/25/60 66/28/48 69/80/47 83/88/61
f 83/88/61 69/80/47 65/50/46 80/49/62
f 72/24/53 59/23/41 62/76/40 76/84/54
f 76/84/54 62/76/40 58/27/39 73/26/55
f 31/47/13 65/50/46 67/77/43 35/59/10
f 35/59/10 67/77/43 64/39/42 29/38/7
f 59/23/41 44/22/25 46/65/22 63/75/38
f 63/75/38 46/65/22 43/37/21 57/40/35
f 36/29/14 78/32/56 84/87/59 39/61/15
f 39/61/15 84/87/59 80/49/62 37/48/18
f 52/21/34 72/24/53 74/81/50 56/71/31
f 56/71/31 74/81/50 71/31/49 50/30/28
f 5/46/5 30/89/5 10/36/5 3/90/5
