# Blender v3.6.4 OBJ File: 'Cocina.blend'
# www.blender.org
mtllib Cocina_PuertasIZQ_02.mtl
o Cocina_PuertasIZQ_02_Cube.008
v -2.062500 4.112500 -3.012500
v -2.112500 4.062500 -3.012500
v -2.112500 4.112500 -3.062500
v -2.077145 4.077145 -3.012500
v -2.083632 4.083632 -3.041368
v -2.112500 4.077145 -3.047855
v -2.077145 4.112500 -3.047855
v -2.112500 4.887500 -3.062500
v -2.112500 4.937500 -3.012500
v -2.062500 4.887500 -3.012500
v -2.112500 4.922855 -3.047855
v -2.083632 4.916368 -3.041368
v -2.077145 4.922855 -3.012500
v -2.077145 4.887500 -3.047855
v -3.387500 4.887500 -3.062500
v -3.437500 4.887500 -3.012500
v -3.387500 4.937500 -3.012500
v -3.422855 4.887500 -3.047855
v -3.416368 4.916368 -3.041368
v -3.422855 4.922855 -3.012500
v -3.387500 4.922855 -3.047855
v -3.387500 4.062500 -3.012500
v -3.437500 4.112500 -3.012500
v -3.387500 4.112500 -3.062500
v -3.422855 4.077145 -3.012500
v -3.416368 4.083632 -3.041368
v -3.422855 4.112500 -3.047855
v -3.387500 4.077145 -3.047855
v -2.112500 4.887500 -2.937500
v -2.062500 4.887500 -2.987500
v -2.112500 4.937500 -2.987500
v -2.077145 4.887500 -2.952145
v -2.083632 4.916368 -2.958632
v -2.077145 4.922855 -2.987500
v -2.112500 4.922855 -2.952145
v -2.062500 4.112500 -2.987500
v -2.112500 4.112500 -2.937500
v -2.112500 4.062500 -2.987500
v -2.077145 4.112500 -2.952145
v -2.083632 4.083632 -2.958632
v -2.112500 4.077145 -2.952145
v -2.077145 4.077145 -2.987500
v -3.387500 4.062500 -2.987500
v -3.387500 4.112500 -2.937500
v -3.437500 4.112500 -2.987500
v -3.387500 4.077145 -2.952145
v -3.416368 4.083632 -2.958632
v -3.422855 4.112500 -2.952145
v -3.422855 4.077145 -2.987500
v -3.387500 4.887500 -2.937500
v -3.387500 4.937500 -2.987500
v -3.437500 4.887500 -2.987500
v -3.387500 4.922855 -2.952145
v -3.416368 4.916368 -2.958632
v -3.422855 4.922855 -2.987500
v -3.422855 4.887500 -2.952145
v -2.112500 4.500000 -3.062500
v -2.062500 4.500000 -3.012500
v -2.077145 4.500000 -3.047855
v -3.437500 4.500000 -3.012500
v -3.387500 4.500000 -3.062500
v -3.422855 4.500000 -3.047855
v -2.062500 4.500000 -2.987500
v -2.112500 4.500000 -2.937500
v -2.077145 4.500000 -2.952145
v -3.387500 4.500000 -2.937500
v -3.437500 4.500000 -2.987500
v -3.422855 4.500000 -2.952145
vt 0.403125 0.759375
vt 0.500000 0.759375
vt 0.500000 0.865625
vt 0.403125 0.865625
vt 0.500000 0.755208
vt 0.596875 0.755208
vt 0.596875 0.755208
vt 0.500000 0.755208
vt 0.596875 0.869792
vt 0.500000 0.869792
vt 0.500000 0.869792
vt 0.596875 0.869792
vt 0.596875 0.759375
vt 0.596875 0.865625
vt 0.500000 0.759375
vt 0.500000 0.865625
vt 0.596875 0.865625
vt 0.596875 0.759375
vt 0.609375 0.759375
vt 0.609375 0.865625
vt 0.609375 0.865625
vt 0.609375 0.759375
vt 0.390625 0.865625
vt 0.390625 0.759375
vt 0.390625 0.759375
vt 0.390625 0.865625
vt 0.403125 0.869792
vt 0.403125 0.869792
vt 0.403125 0.759375
vt 0.403125 0.865625
vt 0.403125 0.755208
vt 0.390625 0.755208
vt 0.392386 0.755795
vt 0.403125 0.755208
vt 0.390625 0.759375
vt 0.609375 0.759375
vt 0.607614 0.755795
vt 0.596875 0.755208
vt 0.609375 0.755208
vt 0.596875 0.869792
vt 0.607614 0.869205
vt 0.609375 0.865625
vt 0.609375 0.869792
vt 0.390625 0.869792
vt 0.392386 0.869205
vt 0.390625 0.865625
vt 0.403125 0.869792
vt 0.596875 0.755208
vt 0.607614 0.755795
vt 0.609375 0.759375
vt 0.609375 0.755208
vt 0.403125 0.755208
vt 0.403125 0.755208
vt 0.392386 0.755795
vt 0.390625 0.755208
vt 0.390625 0.759375
vt 0.390625 0.865625
vt 0.392386 0.869205
vt 0.390625 0.869792
vt 0.403125 0.869792
vt 0.609375 0.865625
vt 0.607614 0.869205
vt 0.596875 0.869792
vt 0.609375 0.869792
vt 0.500000 0.755208
vt 0.500000 0.869792
vt 0.500000 0.755208
vt 0.500000 0.869792
vn 0.1794 -0.1794 0.9673
vn 0.1951 0.0000 0.9808
vn -0.1951 0.0000 0.9808
vn -0.1794 -0.1794 0.9673
vn 0.9808 0.0000 -0.1951
vn 0.9673 0.1794 -0.1794
vn 0.9673 0.1794 0.1794
vn 0.9808 0.0000 0.1951
vn -0.9673 0.1794 -0.1794
vn -0.9808 0.0000 -0.1951
vn -0.9808 0.0000 0.1951
vn -0.9673 0.1794 0.1794
vn 0.1794 0.1794 0.9673
vn -0.1794 0.1794 0.9673
vn 0.1951 0.0000 -0.9808
vn -0.1951 0.0000 -0.9808
vn -0.1794 0.1794 -0.9673
vn 0.1794 0.1794 -0.9673
vn 0.1794 0.9673 -0.1794
vn -0.1794 0.9673 -0.1794
vn -0.1794 0.9673 0.1794
vn 0.1794 0.9673 0.1794
vn -0.1794 -0.9673 -0.1794
vn 0.1794 -0.9673 -0.1794
vn 0.1794 -0.9673 0.1794
vn -0.1794 -0.9673 0.1794
vn -0.9673 -0.1794 -0.1794
vn -0.9673 -0.1794 0.1794
vn 0.1794 -0.1794 -0.9673
vn -0.1794 -0.1794 -0.9673
vn 0.9673 -0.1794 -0.1794
vn 0.9194 -0.3600 -0.1585
vn 0.8881 -0.3251 -0.3251
vn 0.9194 -0.1585 -0.3600
vn 0.1585 -0.9194 -0.3600
vn 0.3251 -0.8881 -0.3251
vn 0.3600 -0.9194 -0.1585
vn 0.3600 -0.1585 -0.9194
vn 0.3251 -0.3251 -0.8881
vn 0.1585 -0.3600 -0.9194
vn 0.1585 0.3600 -0.9194
vn 0.3251 0.3251 -0.8881
vn 0.3600 0.1585 -0.9194
vn 0.3600 0.9194 -0.1585
vn 0.3251 0.8881 -0.3251
vn 0.1585 0.9194 -0.3600
vn 0.9194 0.1585 -0.3600
vn 0.8881 0.3251 -0.3251
vn 0.9194 0.3600 -0.1585
vn -0.3600 0.1585 -0.9194
vn -0.3251 0.3251 -0.8881
vn -0.1585 0.3600 -0.9194
vn -0.9194 0.3600 -0.1585
vn -0.8881 0.3251 -0.3251
vn -0.9194 0.1585 -0.3600
vn -0.1585 0.9194 -0.3600
vn -0.3251 0.8881 -0.3251
vn -0.3600 0.9194 -0.1585
vn -0.3600 -0.9194 -0.1585
vn -0.3251 -0.8881 -0.3251
vn -0.1585 -0.9194 -0.3600
vn -0.9194 -0.1585 -0.3600
vn -0.8881 -0.3251 -0.3251
vn -0.9194 -0.3600 -0.1585
vn -0.1585 -0.3600 -0.9194
vn -0.3251 -0.3251 -0.8881
vn -0.3600 -0.1585 -0.9194
vn 0.3600 0.1585 0.9194
vn 0.3251 0.3251 0.8881
vn 0.1585 0.3600 0.9194
vn 0.9194 0.3600 0.1585
vn 0.8881 0.3251 0.3251
vn 0.9194 0.1585 0.3600
vn 0.1585 0.9194 0.3600
vn 0.3251 0.8881 0.3251
vn 0.3600 0.9194 0.1585
vn 0.9673 -0.1794 0.1794
vn 0.9194 -0.1585 0.3600
vn 0.8881 -0.3251 0.3251
vn 0.9194 -0.3600 0.1585
vn 0.1585 -0.3600 0.9194
vn 0.3251 -0.3251 0.8881
vn 0.3600 -0.1585 0.9194
vn 0.3600 -0.9194 0.1585
vn 0.3251 -0.8881 0.3251
vn 0.1585 -0.9194 0.3600
vn -0.1585 -0.9194 0.3600
vn -0.3251 -0.8881 0.3251
vn -0.3600 -0.9194 0.1585
vn -0.3600 -0.1585 0.9194
vn -0.3251 -0.3251 0.8881
vn -0.1585 -0.3600 0.9194
vn -0.9194 -0.3600 0.1585
vn -0.8881 -0.3251 0.3251
vn -0.9194 -0.1585 0.3600
vn -0.1585 0.3600 0.9194
vn -0.3251 0.3251 0.8881
vn -0.3600 0.1585 0.9194
vn -0.3600 0.9194 0.1585
vn -0.3251 0.8881 0.3251
vn -0.1585 0.9194 0.3600
vn -0.9194 0.1585 0.3600
vn -0.8881 0.3251 0.3251
vn -0.9194 0.3600 0.1585
vn 0.9239 0.0000 -0.3827
vn 0.3827 0.0000 -0.9239
vn -0.3827 0.0000 -0.9239
vn -0.9239 0.0000 -0.3827
vn 0.3827 0.0000 0.9239
vn 0.9239 0.0000 0.3827
vn -0.9239 0.0000 0.3827
vn -0.3827 0.0000 0.9239
usemtl None
s 1
f 37/1/1 64/2/2 66/3/3 44/4/4
f 58/5/5 10/6/6 30/7/7 63/8/8
f 16/9/9 60/10/10 67/11/11 52/12/12
f 64/2/2 29/13/13 50/14/14 66/3/3
f 57/15/15 61/16/16 15/17/17 8/18/18
f 9/19/19 17/20/20 51/21/21 31/22/22
f 22/23/23 2/24/24 38/25/25 43/26/26
f 60/10/10 23/27/27 45/28/28 67/11/11
f 3/29/29 24/30/30 61/16/16 57/15/15
f 1/31/31 4/32/32 5/33/33 7/34/34
f 2/24/24 6/35/35 5/33/36 4/32/37
f 3/29/29 7/34/38 5/33/39 6/35/40
f 8/18/18 11/36/41 12/37/42 14/38/43
f 9/19/19 13/39/44 12/37/45 11/36/46
f 10/6/6 14/38/47 12/37/48 13/39/49
f 15/17/17 18/40/50 19/41/51 21/42/52
f 16/9/9 20/43/53 19/41/54 18/40/55
f 17/20/20 21/42/56 19/41/57 20/43/58
f 22/23/23 25/44/59 26/45/60 28/46/61
f 23/27/27 27/47/62 26/45/63 25/44/64
f 24/30/30 28/46/65 26/45/66 27/47/67
f 29/13/13 32/48/68 33/49/69 35/50/70
f 30/7/7 34/51/71 33/49/72 32/48/73
f 31/22/22 35/50/74 33/49/75 34/51/76
f 36/52/77 39/53/78 40/54/79 42/55/80
f 37/1/1 41/56/81 40/54/82 39/53/83
f 38/25/25 42/55/84 40/54/85 41/56/86
f 43/26/26 46/57/87 47/58/88 49/59/89
f 44/4/4 48/60/90 47/58/91 46/57/92
f 45/28/28 49/59/93 47/58/94 48/60/95
f 50/14/14 53/61/96 54/62/97 56/63/98
f 51/21/21 55/64/99 54/62/100 53/61/101
f 52/12/12 56/63/102 54/62/103 55/64/104
f 58/5/5 1/31/31 7/34/34 59/65/105
f 59/65/106 7/34/38 3/29/29 57/15/15
f 24/30/30 3/29/29 6/35/40 28/46/65
f 28/46/61 6/35/35 2/24/24 22/23/23
f 8/18/18 15/17/17 21/42/52 11/36/41
f 11/36/46 21/42/56 17/20/20 9/19/19
f 61/16/16 24/30/30 27/47/67 62/66/107
f 62/66/108 27/47/62 23/27/27 60/10/10
f 64/2/2 37/1/1 39/53/83 65/67/109
f 65/67/110 39/53/78 36/52/77 63/8/8
f 43/26/26 38/25/25 41/56/86 46/57/87
f 46/57/92 41/56/81 37/1/1 44/4/4
f 31/22/22 51/21/21 53/61/101 35/50/74
f 35/50/70 53/61/96 50/14/14 29/13/13
f 67/11/11 45/28/28 48/60/95 68/68/111
f 68/68/112 48/60/90 44/4/4 66/3/3
f 16/9/9 52/12/12 55/64/104 20/43/53
f 20/43/58 55/64/99 51/21/21 17/20/20
f 30/7/7 10/6/6 13/39/49 34/51/71
f 34/51/76 13/39/44 9/19/19 31/22/22
f 38/25/25 2/24/24 4/32/37 42/55/84
f 42/55/80 4/32/32 1/31/31 36/52/77
f 22/23/23 43/26/26 49/59/89 25/44/59
f 25/44/64 49/59/93 45/28/28 23/27/27
f 10/6/6 58/5/5 59/65/105 14/38/47
f 14/38/43 59/65/106 57/15/15 8/18/18
f 15/17/17 61/16/16 62/66/107 18/40/50
f 18/40/55 62/66/108 60/10/10 16/9/9
f 29/13/13 64/2/2 65/67/109 32/48/68
f 32/48/73 65/67/110 63/8/8 30/7/7
f 52/12/12 67/11/11 68/68/111 56/63/102
f 56/63/98 68/68/112 66/3/3 50/14/14
f 1/31/31 58/5/5 63/8/8 36/52/77
