{
    "asset" : {
        "generator" : "Khronos glTF Blender I/O v3.2.43",
        "version" : "2.0"
    },
    "scene" : 0,
    "scenes" : [
        {
            "name" : "pepsiman.qc",
            "nodes" : [
                0,
                1,
                2,
                3,
                4,
                5,
                6
            ]
        }
    ],
    "nodes" : [
        {
            "mesh" : 0,
            "name" : "Base",
            "scale" : [
                21.703271865844727,
                11.575748443603516,
                11.30003547668457
            ]
        },
        {
            "mesh" : 1,
            "name" : "Tapa",
            "rotation" : [
                -0.5110688805580139,
                0,
                0,
                0.859539806842804
            ],
            "scale" : [
                21.705171585083008,
                1.8785990476608276,
                11.279584884643555
            ]
        },
        {
            "mesh" : 2,
            "name" : "TuboManijaIz",
            "rotation" : [
                0.7071068286895752,
                0,
                0,
                0.7071068286895752
            ],
            "scale" : [
                0.936657190322876,
                5.084806442260742,
                0.936657190322876
            ]
        },
        {
            "mesh" : 3,
            "name" : "LadoManijaIz",
            "rotation" : [
                0,
                -1,
                0,
                1.6292069915380125e-07
            ],
            "scale" : [
                0.9486722350120544,
                4.178675174713135,
                0.2804127037525177
            ],
            "translation" : [
                -2.3996656182134757e-06,
                0,
                0
            ]
        },
        {
            "mesh" : 4,
            "name" : "TuboManijaDer",
            "rotation" : [
                0.7071068286895752,
                0,
                0,
                0.7071068286895752
            ],
            "scale" : [
                0.936657190322876,
                5.084806442260742,
                0.936657190322876
            ]
        },
        {
            "mesh" : 5,
            "name" : "LadoManijaDer",
            "rotation" : [
                0,
                0,
                1,
                1.6292068494294654e-07
            ],
            "scale" : [
                1.2731304168701172,
                1.9697529077529907,
                0.2078419178724289
            ]
        },
        {
            "mesh" : 6,
            "name" : "chelas",
            "scale" : [
                19.061809539794922,
                2.2095353603363037,
                8.464874267578125
            ]
        }
    ],
    "materials" : [
        {
            "doubleSided" : true,
            "name" : "CCK_hielera",
            "pbrMetallicRoughness" : {
                "baseColorTexture" : {
                    "index" : 0
                },
                "metallicFactor" : 0,
                "roughnessFactor" : 0.5
            }
        }
    ],
    "meshes" : [
        {
            "name" : "Cube",
            "primitives" : [
                {
                    "attributes" : {
                        "POSITION" : 0,
                        "NORMAL" : 1,
                        "TEXCOORD_0" : 2
                    },
                    "indices" : 3,
                    "material" : 0
                }
            ]
        },
        {
            "name" : "Cube.001",
            "primitives" : [
                {
                    "attributes" : {
                        "POSITION" : 4,
                        "NORMAL" : 5,
                        "TEXCOORD_0" : 6
                    },
                    "indices" : 7,
                    "material" : 0
                }
            ]
        },
        {
            "name" : "Cylinder",
            "primitives" : [
                {
                    "attributes" : {
                        "POSITION" : 8,
                        "NORMAL" : 9,
                        "TEXCOORD_0" : 10
                    },
                    "indices" : 11,
                    "material" : 0
                }
            ]
        },
        {
            "name" : "Cube.004",
            "primitives" : [
                {
                    "attributes" : {
                        "POSITION" : 12,
                        "NORMAL" : 13,
                        "TEXCOORD_0" : 14
                    },
                    "indices" : 15,
                    "material" : 0
                }
            ]
        },
        {
            "name" : "Cylinder.002",
            "primitives" : [
                {
                    "attributes" : {
                        "POSITION" : 16,
                        "NORMAL" : 17,
                        "TEXCOORD_0" : 18
                    },
                    "indices" : 11,
                    "material" : 0
                }
            ]
        },
        {
            "name" : "Cube.006",
            "primitives" : [
                {
                    "attributes" : {
                        "POSITION" : 19,
                        "NORMAL" : 20,
                        "TEXCOORD_0" : 21
                    },
                    "indices" : 22,
                    "material" : 0
                }
            ]
        },
        {
            "name" : "Cube.010",
            "primitives" : [
                {
                    "attributes" : {
                        "POSITION" : 23,
                        "NORMAL" : 24,
                        "TEXCOORD_0" : 25
                    },
                    "indices" : 26,
                    "material" : 0
                }
            ]
        }
    ],
    "textures" : [
        {
            "sampler" : 0,
            "source" : 0
        }
    ],
    "images" : [
        {
            "mimeType" : "image/png",
            "name" : "heladas",
            "uri" : "texturas/heladas.png"
        }
    ],
    "accessors" : [
        {
            "bufferView" : 0,
            "componentType" : 5126,
            "count" : 282,
            "max" : [
                1,
                2.0614686012268066,
                1
            ],
            "min" : [
                -1,
                0.007007122039794922,
                -1
            ],
            "type" : "VEC3"
        },
        {
            "bufferView" : 1,
            "componentType" : 5126,
            "count" : 282,
            "type" : "VEC3"
        },
        {
            "bufferView" : 2,
            "componentType" : 5126,
            "count" : 282,
            "type" : "VEC2"
        },
        {
            "bufferView" : 3,
            "componentType" : 5123,
            "count" : 1488,
            "type" : "SCALAR"
        },
        {
            "bufferView" : 4,
            "componentType" : 5126,
            "count" : 214,
            "max" : [
                0.6655474305152893,
                12.465874671936035,
                1.058577299118042
            ],
            "min" : [
                -1.3344526290893555,
                10.465874671936035,
                -0.9414227604866028
            ],
            "type" : "VEC3"
        },
        {
            "bufferView" : 5,
            "componentType" : 5126,
            "count" : 214,
            "type" : "VEC3"
        },
        {
            "bufferView" : 6,
            "componentType" : 5126,
            "count" : 214,
            "type" : "VEC2"
        },
        {
            "bufferView" : 7,
            "componentType" : 5123,
            "count" : 1032,
            "type" : "SCALAR"
        },
        {
            "bufferView" : 8,
            "componentType" : 5126,
            "count" : 260,
            "max" : [
                -23.26776885986328,
                0.9999998211860657,
                -10.715965270996094
            ],
            "min" : [
                -25.267770767211914,
                -1.0000001192092896,
                -20.993921279907227
            ],
            "type" : "VEC3"
        },
        {
            "bufferView" : 9,
            "componentType" : 5126,
            "count" : 260,
            "type" : "VEC3"
        },
        {
            "bufferView" : 10,
            "componentType" : 5126,
            "count" : 260,
            "type" : "VEC2"
        },
        {
            "bufferView" : 11,
            "componentType" : 5123,
            "count" : 744,
            "type" : "SCALAR"
        },
        {
            "bufferView" : 12,
            "componentType" : 5126,
            "count" : 322,
            "max" : [
                25.481525421142578,
                4.816367149353027,
                21.322790145874023
            ],
            "min" : [
                22.797494888305664,
                2.33974027633667,
                -21.846439361572266
            ],
            "type" : "VEC3"
        },
        {
            "bufferView" : 13,
            "componentType" : 5126,
            "count" : 322,
            "type" : "VEC3"
        },
        {
            "bufferView" : 14,
            "componentType" : 5126,
            "count" : 322,
            "type" : "VEC2"
        },
        {
            "bufferView" : 15,
            "componentType" : 5123,
            "count" : 1416,
            "type" : "SCALAR"
        },
        {
            "bufferView" : 16,
            "componentType" : 5126,
            "count" : 260,
            "max" : [
                25.416961669921875,
                0.9999998211860657,
                -10.715965270996094
            ],
            "min" : [
                23.416959762573242,
                -1.0000001192092896,
                -20.993921279907227
            ],
            "type" : "VEC3"
        },
        {
            "bufferView" : 17,
            "componentType" : 5126,
            "count" : 260,
            "type" : "VEC3"
        },
        {
            "bufferView" : 18,
            "componentType" : 5126,
            "count" : 260,
            "type" : "VEC2"
        },
        {
            "bufferView" : 19,
            "componentType" : 5126,
            "count" : 322,
            "max" : [
                -16.83039093017578,
                -4.9635772705078125,
                29.474451065063477
            ],
            "min" : [
                -18.83039093017578,
                -10.217545509338379,
                -28.76788902282715
            ],
            "type" : "VEC3"
        },
        {
            "bufferView" : 20,
            "componentType" : 5126,
            "count" : 322,
            "type" : "VEC3"
        },
        {
            "bufferView" : 21,
            "componentType" : 5126,
            "count" : 322,
            "type" : "VEC2"
        },
        {
            "bufferView" : 22,
            "componentType" : 5123,
            "count" : 1416,
            "type" : "SCALAR"
        },
        {
            "bufferView" : 23,
            "componentType" : 5126,
            "count" : 198,
            "max" : [
                1,
                11.33211612701416,
                1
            ],
            "min" : [
                -1,
                8.073755264282227,
                -1
            ],
            "type" : "VEC3"
        },
        {
            "bufferView" : 24,
            "componentType" : 5126,
            "count" : 198,
            "type" : "VEC3"
        },
        {
            "bufferView" : 25,
            "componentType" : 5126,
            "count" : 198,
            "type" : "VEC2"
        },
        {
            "bufferView" : 26,
            "componentType" : 5123,
            "count" : 420,
            "type" : "SCALAR"
        }
    ],
    "bufferViews" : [
        {
            "buffer" : 0,
            "byteLength" : 3384,
            "byteOffset" : 0
        },
        {
            "buffer" : 0,
            "byteLength" : 3384,
            "byteOffset" : 3384
        },
        {
            "buffer" : 0,
            "byteLength" : 2256,
            "byteOffset" : 6768
        },
        {
            "buffer" : 0,
            "byteLength" : 2976,
            "byteOffset" : 9024
        },
        {
            "buffer" : 0,
            "byteLength" : 2568,
            "byteOffset" : 12000
        },
        {
            "buffer" : 0,
            "byteLength" : 2568,
            "byteOffset" : 14568
        },
        {
            "buffer" : 0,
            "byteLength" : 1712,
            "byteOffset" : 17136
        },
        {
            "buffer" : 0,
            "byteLength" : 2064,
            "byteOffset" : 18848
        },
        {
            "buffer" : 0,
            "byteLength" : 3120,
            "byteOffset" : 20912
        },
        {
            "buffer" : 0,
            "byteLength" : 3120,
            "byteOffset" : 24032
        },
        {
            "buffer" : 0,
            "byteLength" : 2080,
            "byteOffset" : 27152
        },
        {
            "buffer" : 0,
            "byteLength" : 1488,
            "byteOffset" : 29232
        },
        {
            "buffer" : 0,
            "byteLength" : 3864,
            "byteOffset" : 30720
        },
        {
            "buffer" : 0,
            "byteLength" : 3864,
            "byteOffset" : 34584
        },
        {
            "buffer" : 0,
            "byteLength" : 2576,
            "byteOffset" : 38448
        },
        {
            "buffer" : 0,
            "byteLength" : 2832,
            "byteOffset" : 41024
        },
        {
            "buffer" : 0,
            "byteLength" : 3120,
            "byteOffset" : 43856
        },
        {
            "buffer" : 0,
            "byteLength" : 3120,
            "byteOffset" : 46976
        },
        {
            "buffer" : 0,
            "byteLength" : 2080,
            "byteOffset" : 50096
        },
        {
            "buffer" : 0,
            "byteLength" : 3864,
            "byteOffset" : 52176
        },
        {
            "buffer" : 0,
            "byteLength" : 3864,
            "byteOffset" : 56040
        },
        {
            "buffer" : 0,
            "byteLength" : 2576,
            "byteOffset" : 59904
        },
        {
            "buffer" : 0,
            "byteLength" : 2832,
            "byteOffset" : 62480
        },
        {
            "buffer" : 0,
            "byteLength" : 2376,
            "byteOffset" : 65312
        },
        {
            "buffer" : 0,
            "byteLength" : 2376,
            "byteOffset" : 67688
        },
        {
            "buffer" : 0,
            "byteLength" : 1584,
            "byteOffset" : 70064
        },
        {
            "buffer" : 0,
            "byteLength" : 840,
            "byteOffset" : 71648
        }
    ],
    "samplers" : [
        {
            "magFilter" : 9729,
            "minFilter" : 9987
        }
    ],
    "buffers" : [
        {
            "byteLength" : 72488,
            "uri" : "hielera_chelas.bin"
        }
    ]
}
