<?xml version="1.0" encoding="utf-8"?>
<!-- Generator: Adobe Illustrator 21.0.0, SVG Export Plug-In . SVG Version: 6.00 Build 0)  -->
<svg version="1.1" id="Layer_1" xmlns="http://www.w3.org/2000/svg" xmlns:xlink="http://www.w3.org/1999/xlink" x="0px" y="0px"
	 viewBox="0 0 128 128" style="enable-background:new 0 0 128 128;" xml:space="preserve">
<style type="text/css">
	.st0{fill:#FFFAE6;}
	.st1{fill:#897A63;}
</style>
<circle class="st0" cx="64" cy="64" r="64"/>
<path class="st1" d="M46.3,96.6C35.4,83.3,28.3,63,57.7,42.6c0.7-0.5,1-1.5,0.6-2.3l-3.5-7.5c-0.6-1.3,0.4-2.7,1.8-2.6l32.7,2.8
	c1.2,0.1,2,1.3,1.6,2.4L80.6,67.3c-0.5,1.4-2.3,1.7-3.2,0.5l-6.3-8.3c-0.6-0.8-1.7-1-2.5-0.4c-5,3.4-21.1,16-16.3,34.5
	C53.2,97.1,48.6,99.4,46.3,96.6z"/>
</svg>
