<?xml version="1.0" encoding="utf-8"?>
<!-- Generator: Adobe Illustrator 21.0.0, SVG Export Plug-In . SVG Version: 6.00 Build 0)  -->
<svg version="1.1" id="Layer_1" xmlns="http://www.w3.org/2000/svg" xmlns:xlink="http://www.w3.org/1999/xlink" x="0px" y="0px"
	 viewBox="0 0 128 128" style="enable-background:new 0 0 128 128;" xml:space="preserve">
<style type="text/css">
	.st0{fill:#FFFAE6;}
	.st1{fill:#897A63;}
</style>
<circle class="st0" cx="64" cy="64" r="64"/>
<path class="st1" d="M81.7,96.6c10.9-13.3,18.1-33.6-11.4-54c-0.7-0.5-1-1.5-0.6-2.3l3.5-7.5c0.6-1.3-0.4-2.7-1.8-2.6l-32.7,2.8
	c-1.2,0.1-2,1.3-1.6,2.4l10.4,31.9c0.5,1.4,2.3,1.7,3.2,0.5l6.3-8.3c0.6-0.8,1.7-1,2.5-0.4c5,3.4,21.1,16,16.3,34.5
	C74.8,97.1,79.4,99.4,81.7,96.6z"/>
</svg>
