<?xml version="1.0" encoding="utf-8"?>
<!-- Generator: Adobe Illustrator 21.0.0, SVG Export Plug-In . SVG Version: 6.00 Build 0)  -->
<svg version="1.1" id="Layer_1" xmlns="http://www.w3.org/2000/svg" xmlns:xlink="http://www.w3.org/1999/xlink" x="0px" y="0px"
	 viewBox="0 0 128 128" style="enable-background:new 0 0 128 128;" xml:space="preserve">
<style type="text/css">
	.st0{fill:#FFFAE6;}
	.st1{fill:#897A63;}
</style>
<circle class="st0" cx="64" cy="64" r="64"/>
<path class="st1" d="M64,94.6L64,94.6c-5,0-9.1-4.1-9.1-9.1V42.6c0-5,4.1-9.1,9.1-9.1l0,0c5,0,9.1,4.1,9.1,9.1v42.9
	C73.1,90.4,69,94.6,64,94.6z"/>
<path class="st1" d="M33.5,64L33.5,64c0-5,4.1-9.1,9.1-9.1h42.9c5,0,9.1,4.1,9.1,9.1l0,0c0,5-4.1,9.1-9.1,9.1H42.5
	C37.5,73.1,33.5,69,33.5,64z"/>
</svg>
